<svg width="64" height="64" viewBox="0 0 512 512" fill="none" xmlns="http://www.w3.org/2000/svg">
  <defs>
    <linearGradient id="cf-bg" x1="40" y1="30" x2="472" y2="482" gradientUnits="userSpaceOnUse">
      <stop offset="0%" stopColor="#141C2E" />
      <stop offset="45%" stopColor="#0B101D" />
      <stop offset="100%" stopColor="#05080E" />
    </linearGradient>
    <linearGradient id="cf-border" x1="24" y1="24" x2="488" y2="488" gradientUnits="userSpaceOnUse">
      <stop offset="0%" stopColor="#A78BFA" stopOpacity="0.9" />
      <stop offset="35%" stopColor="#818CF8" stopOpacity="0.5" />
      <stop offset="70%" stopColor="#06B6D4" stopOpacity="0.7" />
      <stop offset="100%" stopColor="#38BDF8" stopOpacity="0.9" />
    </linearGradient>
    <linearGradient id="cf-c-arc" x1="100" y1="100" x2="400" y2="400" gradientUnits="userSpaceOnUse">
      <stop offset="0%" stopColor="#C4B5FD" />
      <stop offset="25%" stopColor="#818CF8" />
      <stop offset="60%" stopColor="#4F46E5" />
      <stop offset="90%" stopColor="#06B6D4" />
      <stop offset="100%" stopColor="#38BDF8" />
    </linearGradient>
    <radialGradient id="cf-rec-glow" cx="280" cy="278" r="85" gradientUnits="userSpaceOnUse">
      <stop offset="0%" stopColor="#FF3358" stopOpacity="0.95" />
      <stop offset="45%" stopColor="#F43F5E" stopOpacity="0.6" />
      <stop offset="100%" stopColor="#FF3358" stopOpacity="0" />
    </radialGradient>
  </defs>
  <rect x="24" y="24" width="464" height="464" rx="108" fill="url(#cf-bg)" stroke="url(#cf-border)" strokeWidth="4" />
  <path d="M68 112 V68 H112" stroke="#818CF8" strokeWidth="3.5" strokeLinecap="round" opacity="0.45" />
  <path d="M444 112 V68 H400" stroke="#818CF8" strokeWidth="3.5" strokeLinecap="round" opacity="0.45" />
  <path d="M68 400 V444 H112" stroke="#818CF8" strokeWidth="3.5" strokeLinecap="round" opacity="0.45" />
  <path d="M444 400 V444 H400" stroke="#818CF8" strokeWidth="3.5" strokeLinecap="round" opacity="0.45" />
  <path
    d="M344 154 C300 118 240 106 182 126 C116 148 70 208 70 278 C70 348 116 408 182 430 C240 450 300 438 344 402"
    fill="none"
    stroke="url(#cf-c-arc)"
    strokeWidth="50"
    strokeLinecap="round"
  />
  <circle cx="280" cy="278" r="74" fill="url(#cf-rec-glow)" />
  <circle cx="280" cy="278" r="46" stroke="#FFFFFF" strokeWidth="5" strokeDasharray="15 13" opacity="0.5" />
  <circle cx="280" cy="278" r="28" fill="#FF3358" stroke="#FFFFFF" strokeWidth="4.5" />
  <path d="M402 96 Q402 112 386 112 Q402 112 402 128 Q402 112 418 112 Q402 112 402 96 Z" fill="#38BDF8" opacity="0.95" />
</svg>
